<?xml version="1.0" encoding="utf-8"?>
<!-- Generator: Adobe Illustrator 21.1.0, SVG Export Plug-In . SVG Version: 6.00 Build 0)  -->
<svg version="1.1" id="Capa_1" xmlns="http://www.w3.org/2000/svg" xmlns:xlink="http://www.w3.org/1999/xlink" x="0px" y="0px"
	 viewBox="0 0 213.8 117.8" style="enable-background:new 0 0 213.8 117.8;" xml:space="preserve">
<style type="text/css">
	.st0{fill:#F7B617;}
	.st1{fill:#2B2B2B;}
</style>
<path class="st0" d="M70.1,106.8c2,1.1,2,2.5,2,3.7v5.3c0,0.9-0.7,1.8-1.6,1.8c-0.5,0-0.9-0.4-1.2-0.4L2.8,82.3
	C1,81.4,0,80.4,0,78.9v-5.3c0-1.2,0.5-2.7,2.1-3.4l67.2-35.1c0.4-0.2,0.9-0.4,1.4-0.4c0.7,0,1.4,0.5,1.4,1.6v5.1
	c0,1.1-0.5,2.7-2.1,3.4L10.6,76.1L70.1,106.8z"/>
<path class="st0" d="M203.4,75.8l-59.6-31c-1.6-0.7-2.1-2.3-2.1-3.4v-5.1c0-1.1,0.7-1.6,1.4-1.6c0.5,0,0.9,0.2,1.4,0.4l67.2,35.1
	c1.6,0.7,2.1,2.1,2.1,3.4v5.3c0,1.4-0.9,2.5-2.8,3.4l-66.5,34.9c-0.5,0-0.7,0.4-1.2,0.4c-1.1,0-1.6-0.9-1.6-1.8v-5.3
	c0-1.2,0-2.7,1.9-3.7L203.4,75.8z"/>
<g>
	<path class="st1" d="M96.9,0h8c0.9,0,1.6,0.5,1.6,1.5v95.1c0,7.9,1.8,10.6,8.4,10.6h2c1.6,0,1.6,1.1,1.6,2.2v6.4
		c0,1.1-0.7,1.6-1.6,1.8c-1.8,0.2-3.5,0.2-4.4,0.2c-14.4,0-17.2-7.7-17.2-20.1v-96C95.4,0.8,95.8,0,96.9,0"/>
</g>
</svg>
